<svg width="300" height="247" viewBox="0 0 680 560" role="img" xmlns="http://www.w3.org/2000/svg">
<title>Kungfu</title>
<desc>Black-and-white hand-drawn line art of a Shaolin monk doing a high side kick: robe with fold lines, dark cloth sash, criss-cross wrapped shins, three ordination dots on the scalp. Line art with only small solid-black accents on sash and wraps.</desc>
<path d="M356 306 C312 274 256 224 214 184 C206 176 196 176 192 184 C188 192 194 202 204 208 C248 246 300 292 344 322 C356 320 362 314 356 306 Z" fill="#ffffff" stroke="#141414" stroke-width="6" stroke-linejoin="round"/>
<path d="M204 208 C192 200 184 186 190 178 L206 170 C214 178 216 190 212 200 Z" fill="#ffffff" stroke="#141414" stroke-width="6" stroke-linejoin="round"/>
<path d="M348 316 C344 378 344 440 350 486 C352 496 362 496 366 488 C372 442 374 380 392 316 C378 322 362 322 348 316 Z" fill="#ffffff" stroke="#141414" stroke-width="6" stroke-linejoin="round"/>
<path d="M346 486 C338 492 330 498 328 506 L372 508 C376 500 374 492 368 486 Z" fill="#ffffff" stroke="#141414" stroke-width="6" stroke-linejoin="round"/>
<path d="M340 300 C328 348 322 396 326 432 L340 424 L352 434 L366 424 L382 434 L396 424 C404 388 406 344 400 300 C382 312 358 312 340 300 Z" fill="#ffffff" stroke="#141414" stroke-width="6" stroke-linejoin="round"/>
<path d="M348 330 C346 360 344 388 348 414" fill="none" stroke="#141414" stroke-width="3" stroke-linecap="round"/>
<path d="M392 330 C394 360 396 388 392 414" fill="none" stroke="#141414" stroke-width="3" stroke-linecap="round"/>
<path d="M344 196 C338 242 342 286 352 316 C372 322 402 322 420 314 C430 286 434 242 428 196 C418 184 402 180 386 180 C368 180 354 186 344 196 Z" fill="#ffffff" stroke="#141414" stroke-width="6" stroke-linejoin="round"/>
<path d="M334 312 C358 320 384 318 404 308 L406 320 C384 330 358 332 334 322 Z" fill="#141414"/>
<path d="M356 326 C353 356 352 382 358 404 L374 400 C376 376 373 350 372 328 Z" fill="#141414"/>
<path d="M344 200 C316 210 296 230 300 252 C306 258 320 256 326 246 C332 232 340 214 350 206 Z" fill="#ffffff" stroke="#141414" stroke-width="6" stroke-linejoin="round"/>
<circle cx="304" cy="250" r="12" fill="#ffffff" stroke="#141414" stroke-width="6"/>
<path d="M420 200 C446 206 462 226 456 248 C450 254 438 250 432 240 C426 226 418 210 410 204 Z" fill="#ffffff" stroke="#141414" stroke-width="6" stroke-linejoin="round"/>
<circle cx="446" cy="242" r="12" fill="#ffffff" stroke="#141414" stroke-width="6"/>
<path d="M384 184 L372 246" fill="none" stroke="#141414" stroke-width="3" stroke-linecap="round"/>
<path d="M392 184 L404 240" fill="none" stroke="#141414" stroke-width="3" stroke-linecap="round"/>
<path d="M356 236 C362 248 362 262 356 274" fill="none" stroke="#141414" stroke-width="3" stroke-linecap="round"/>
<path d="M416 236 C410 248 410 262 416 274" fill="none" stroke="#141414" stroke-width="3" stroke-linecap="round"/>
<circle cx="388" cy="150" r="33" fill="#ffffff" stroke="#141414" stroke-width="6"/>
<path d="M418 150 C426 152 426 166 418 170" fill="none" stroke="#141414" stroke-width="5" stroke-linecap="round"/>
<circle cx="373" cy="126" r="2.4" fill="#141414"/>
<circle cx="388" cy="123" r="2.4" fill="#141414"/>
<circle cx="403" cy="126" r="2.4" fill="#141414"/>
<path d="M375 142 C381 139 391 139 396 143" fill="none" stroke="#141414" stroke-width="3.5" stroke-linecap="round"/>
<circle cx="386" cy="152" r="2.4" fill="#141414"/>
<path d="M388 156 C387 164 384 168 380 170" fill="none" stroke="#141414" stroke-width="3" stroke-linecap="round"/>
<path d="M380 178 C386 181 394 181 399 177" fill="none" stroke="#141414" stroke-width="3" stroke-linecap="round"/>
<path d="M238 246 L262 226 M244 252 L268 232 M250 258 L274 238" stroke="#141414" stroke-width="5" stroke-linecap="round"/>
<path d="M262 226 L242 250 M268 232 L248 256" stroke="#141414" stroke-width="4" stroke-linecap="round"/>
<path d="M340 452 L370 452 M338 462 L372 462 M342 442 L368 442" stroke="#141414" stroke-width="5" stroke-linecap="round"/>
<path d="M348 442 L346 462 M360 442 L362 462" stroke="#141414" stroke-width="4" stroke-linecap="round"/>
</svg>
